{
	"asset":{
		"generator":"Khronos glTF Blender I/O v5.0.21",
		"version":"2.0"
	},
	"scene":0,
	"scenes":[
		{
			"name":"Scene",
			"nodes":[
				0
			]
		}
	],
	"nodes":[
		{
			"mesh":0,
			"name":"tripo_node_db618dba",
			"rotation":[
				-0.19534078240394592,
				-0.644568920135498,
				0.1845780611038208,
				0.7157540321350098
			],
			"translation":[
				0.010514076799154282,
				-0.11468606442213058,
				0.1398434042930603
			]
		}
	],
	"materials":[
		{
			"doubleSided":true,
			"name":"tripo_mat_db618dba",
			"pbrMetallicRoughness":{
				"baseColorTexture":{
					"index":0
				},
				"metallicFactor":0.8392857313156128,
				"roughnessFactor":0.8999999761581421
			}
		}
	],
	"meshes":[
		{
			"name":"tripo_mesh_db618dba",
			"primitives":[
				{
					"attributes":{
						"POSITION":0,
						"NORMAL":1,
						"TEXCOORD_0":2
					},
					"indices":3,
					"material":0
				}
			]
		}
	],
	"textures":[
		{
			"sampler":0,
			"source":0
		}
	],
	"images":[
		{
			"mimeType":"image/jpeg",
			"name":"0c6fea8d-57f0-47df-89bc-2bfd0cc6b849_basecolor",
			"uri":"textures/0c6fea8d-57f0-47df-89bc-2bfd0cc6b849_basecolor.JPEG"
		}
	],
	"accessors":[
		{
			"bufferView":0,
			"componentType":5126,
			"count":1052968,
			"max":[
				0.144866943359375,
				0.3672637939453125,
				0.49163818359375
			],
			"min":[
				-0.1447601318359375,
				0,
				-0.489715576171875
			],
			"type":"VEC3"
		},
		{
			"bufferView":1,
			"componentType":5126,
			"count":1052968,
			"type":"VEC3"
		},
		{
			"bufferView":2,
			"componentType":5126,
			"count":1052968,
			"type":"VEC2"
		},
		{
			"bufferView":3,
			"componentType":5125,
			"count":5647533,
			"type":"SCALAR"
		}
	],
	"bufferViews":[
		{
			"buffer":0,
			"byteLength":12635616,
			"byteOffset":0,
			"target":34962
		},
		{
			"buffer":0,
			"byteLength":12635616,
			"byteOffset":12635616,
			"target":34962
		},
		{
			"buffer":0,
			"byteLength":8423744,
			"byteOffset":25271232,
			"target":34962
		},
		{
			"buffer":0,
			"byteLength":22590132,
			"byteOffset":33694976,
			"target":34963
		}
	],
	"samplers":[
		{
			"magFilter":9729,
			"minFilter":9987
		}
	],
	"buffers":[
		{
			"byteLength":56285108,
			"uri":"Antonomy%28Hand%293.bin"
		}
	]
}
